# xmcd
#
# Track frame offsets:
# 750
# 15225
# 29338
# 42000
# 55233
# 69745
# 85475
# 100893
# 116073
# 132225
# 146343
# 162368
# 176378
# 189638
# 206698
# 221200
# 239200
# 255788
#
# Disc length: 3621 seconds
#
#
# Revision: 2
# Processed by: cddbd v1.5.1PL0 Copyright (c) Steve Scherf et al.
# Submitted via: FreeRIP 2.93 
#
DISCID=010e1b12
DTITLE=Truck Stop - 30 Jahre Truck Stop
DYEAR=2003
DGENRE=Country
TTITLE0=Von Arizona bis Old Texas Town
TTITLE1=& Gunther Gabriel - Die Frau mit dem Gurt
TTITLE2=300 Jahre (wenn man uns addiert)
TTITLE3=& Stefan Raab - Der Wilde, wilde Westen
TTITLE4=Mississippi Lady
TTITLE5=Wir sind die Counrty-Superstar
TTITLE6=& The Ballamy Brothers - Hello, Lady Harley
TTITLE7=Das Leben ist viel zu kurz
TTITLE8=Ich möcht so gern Dave Dudley hör'n
TTITLE9=Das gibt es nur in Mashville
TTITLE10=& Linda Feller - Hey, kleiner Cowboy
TTITLE11=Keep on Truckin'
TTITLE12=& Marcus - Take it easy, altes Haus
TTITLE13=Wie Schön, das du das bist
TTITLE14=& Höhner - Angeln entspannt
TTITLE15=Ein Herz und eine Seele
TTITLE16=Jenny
TTITLE17=& Peter -Freunde bleiben
EXTD=
EXTT0=
EXTT1=
EXTT2=
EXTT3=
EXTT4=
EXTT5=
EXTT6=
EXTT7=
EXTT8=
EXTT9=
EXTT10=
EXTT11=
EXTT12=
EXTT13=
EXTT14=
EXTT15=
EXTT16=
EXTT17=
PLAYORDER=
